<?xml version="1.0" encoding="utf-8"?>
<svg xmlns="http://www.w3.org/2000/svg" version="1.1" x="0px" y="0px" viewBox="0 0 100 125" style="">
  <path d="M 17.25 29.2 L 17.65 37.2 L 14.75 37.8 L 14.45 37.8 C 14.25 33.8 14.25 33.1 14.15 32.9 C 14.05 30.8 12.35 29 10.25 29 C 8.05 29 6.35 30.7 6.35 32.9 C 6.35 33.7 7.35 50.8 8.95 78.7 C 9.25 83.1 10.95 86.4 13.45 88.7 C 12.25 89.8 11.45 91.2 11.25 92.9 C 10.85 96.6 13.45 100 17.15 100.4 C 27.55 101.6 38.45 102.3 49.65 102.3 C 61.25 102.3 72.65 101.6 83.35 100.3 C 86.75 99.9 89.25 97 89.25 93.6 C 89.25 93.3 89.25 93 89.15 92.8 C 88.95 91.1 88.05 89.6 86.85 88.5 C 89.15 86.2 90.85 83 91.05 78.7 C 92.65 50.8 93.65 33.6 93.65 32.9 C 93.65 30.7 91.95 29 89.75 29 C 87.65 29 85.95 30.8 85.85 32.9 C 85.85 33 85.85 33.8 85.55 37.8 L 85.25 37.8 L 82.65 37.3 L 83.05 29.2 C 83.05 25.8 80.25 22.7 76.85 22.7 L 23.45 22.7 C 20.05 22.8 17.25 25.8 17.25 29.2 Z M 16.75 78.3 C 15.75 61.6 15.15 51 14.75 44.3 L 17.85 43.6 L 19.85 77.8 C 19.85 80.5 21.65 82.9 24.15 83.7 L 23.55 85.8 C 20.55 84.9 17.05 82.9 16.75 78.3 Z M 68.05 88.1 C 62.05 88.5 55.95 88.8 49.65 88.8 C 43.55 88.8 37.55 88.6 31.75 88.2 C 31.55 88 31.45 87.6 31.15 87.5 L 31.55 83.8 L 67.65 83.8 L 68.05 88.1 Z M 85.35 44.3 C 84.95 51 84.35 61.6 83.35 78.3 C 83.05 83.3 78.85 85.3 75.55 86.1 L 75.05 84 C 78.15 83.7 80.65 81 80.65 77.8 L 82.45 43.7 L 85.35 44.3 Z" style="fill: rgb(139, 69, 19); transform-box: fill-box; transform-origin: 50% 50%;" transform="matrix(0, -1, 1, 0, 0.000005, 0)"/>
</svg>